<svg width="18" height="20" viewBox="0 0 18 20" fill="none" xmlns="http://www.w3.org/2000/svg">
<path fill-rule="evenodd" clip-rule="evenodd" d="M11.4194 15.9969C11.4484 15.781 11.4546 15.5533 11.4355 15.322C10.3283 13.553 8.53617 14.919 8.71851 15.4635C8.83776 15.7635 9.00082 15.8981 9.39153 16.0739C9.69882 16.1282 9.86002 16.1192 10.2367 15.7139C10.2654 15.6833 10.2893 15.6569 10.3106 15.6333C10.4059 15.5277 10.4493 15.4797 10.6374 15.3725C10.6645 15.3464 10.7626 15.2919 10.8158 15.307C11.0502 15.3804 11.0907 15.4616 11.1619 15.6045C11.2103 15.7013 11.2727 15.8265 11.4194 15.9969Z" fill="white"/>
<path fill-rule="evenodd" clip-rule="evenodd" d="M3.41037 7.56662C2.27336 8.06244 2.25697 9.26031 3.20691 9.48816C3.21794 9.65525 3.21929 9.78785 3.20691 10.1437C2.75591 10.7602 2.48863 10.9338 2.00878 11.2062C1.60729 9.20472 -0.719704 10.1852 0.222882 12.3818C0.594503 13.2906 1.901 14.0296 3.20691 12.5852C3.33034 13.9768 5.3281 14.9375 5.12845 12.4948C5.24414 12.454 5.31123 12.4401 5.44494 12.4722C5.43838 12.8266 5.43565 13.0248 5.671 13.2634C6.39124 15.1729 5.59254 15.6033 5.21852 15.8049C5.14372 15.8452 5.08591 15.8763 5.06063 15.9083C4.71947 16.3169 4.74092 16.7948 5.71621 17.2195C5.9764 17.3896 5.92415 17.6989 5.78403 18.395C6.3182 19.9082 11.6558 20.5164 13.5154 18.5081C13.9929 17.875 14.0592 17.5832 14.1619 17.1315L14.162 17.1311C14.172 17.0869 14.1824 17.0412 14.1936 16.9935C14.2834 16.3265 14.2713 15.7419 14.2589 15.1457C14.225 13.5106 14.1893 11.7883 16.2508 8.04136C20.193 1.21504 11.0092 -3.17197 6.68828 2.84191C6.47263 3.28952 6.33414 3.48791 6.07791 3.81398C5.16162 3.97866 5.06519 4.29449 4.9702 4.89908C3.97442 5.87382 3.75065 6.47826 3.41037 7.56662ZM4.9702 6.59524C4.83492 6.87373 4.4631 7.95595 5.26711 9.14561C6.08538 9.85283 7.47555 9.8777 8.08067 8.67087C8.4279 7.57388 8.38785 7.19935 7.76301 6.32296C6.78405 5.37549 5.58978 5.54934 4.9702 6.59524ZM10.1198 9.48816C9.61001 8.04049 9.73356 7.25247 10.9139 5.90219C11.7514 5.13044 14.3235 4.97885 14.5993 6.40137C15.0391 8.41274 14.8849 9.96273 13.251 10.6457C11.6105 10.9074 10.7542 10.6351 10.1198 9.48816ZM13.7826 1.20105C13.7609 1.24614 13.7387 1.29246 13.7196 1.33475C13.6629 1.32747 13.5989 1.31377 13.5301 1.29903C13.4122 1.2738 13.28 1.24551 13.1455 1.24108C13.0785 1.31366 13.0444 1.44284 13.1178 1.49178C13.1609 1.49358 13.2464 1.4951 13.324 1.49648C13.3814 1.4975 13.4345 1.49844 13.4628 1.49936C13.5129 1.50099 13.5464 1.50506 13.5799 1.50914C13.6073 1.51247 13.6347 1.51581 13.6712 1.51779C13.6454 1.57301 13.6263 1.63111 13.6057 1.694C13.5791 1.77491 13.55 1.86375 13.5005 1.9646C13.3117 1.98467 12.8367 2.05874 12.7027 2.13023C12.8027 2.13593 13.0451 2.13327 13.2137 2.13142C13.2883 2.1306 13.3484 2.12994 13.3754 2.13023C13.3904 2.13039 13.4049 2.13055 13.4187 2.13073C13.3784 2.21246 13.3016 2.39562 13.2189 2.59268C13.1211 2.82589 13.0152 3.07859 12.9518 3.20575C12.9561 3.22358 12.9596 3.24274 12.9632 3.26228C12.9851 3.38006 13.0095 3.51132 13.2152 3.44625C13.3078 3.39651 13.5817 2.65833 13.6955 2.16309C13.7167 2.17039 13.7883 2.17792 13.8758 2.18712C14.0382 2.2042 14.2556 2.22705 14.3077 2.26492C14.3711 2.22968 14.3725 2.22931 14.4054 2.22079C14.4154 2.2182 14.4283 2.21486 14.4467 2.20958C14.5813 2.17091 14.6447 2.11971 14.529 2.04355L13.7401 1.96287C13.7821 1.84987 13.8055 1.76181 13.8278 1.67809C13.8396 1.63369 13.8511 1.5905 13.8649 1.54546C13.9578 1.60398 14.0881 1.60911 14.2205 1.61431C14.3284 1.61855 14.4377 1.62284 14.529 1.65615L14.363 1.49178C14.2716 1.4547 14.1231 1.42722 14.0114 1.40655C13.9804 1.40082 13.9523 1.39561 13.929 1.39087C13.9511 1.31422 13.9724 1.237 13.9955 1.1533C14.004 1.12219 14.0139 1.05773 14.0241 0.990446C14.0355 0.916112 14.0473 0.838343 14.0586 0.798334C14.0295 0.803366 13.971 0.880309 13.8977 0.976667C13.8871 0.990657 13.8761 1.00506 13.8649 1.01971C13.8485 1.06397 13.8163 1.13101 13.7826 1.20105ZM7.08702 16.1203C7.6899 15.7276 7.69819 15.0982 7.25919 13.4125V13.1621C8.61477 13.3097 9.20975 13.2538 10.0139 13.0056C10.9359 13.5377 11.3638 14.4552 11.4355 15.322C10.3283 13.553 8.53617 14.919 8.71851 15.4635C8.83776 15.7635 9.00082 15.8981 9.39153 16.0739C9.69882 16.1282 9.86002 16.1192 10.2367 15.7139C10.2654 15.6833 10.2893 15.6569 10.3106 15.6333C10.4059 15.5277 10.4493 15.4797 10.6374 15.3725C10.6645 15.3464 10.7626 15.2919 10.8158 15.307C11.0502 15.3804 11.0907 15.4616 11.1619 15.6045C11.2103 15.7013 11.2727 15.8265 11.4194 15.9969C11.2761 17.0638 10.5769 17.8402 9.63824 17.3254C8.28552 16.3398 7.69308 16.0271 7.08702 16.1203Z" fill="white"/>
</svg>
