<svg width="36" height="41" viewBox="0 0 36 41" fill="none" xmlns="http://www.w3.org/2000/svg">
<path fill-rule="evenodd" clip-rule="evenodd" d="M23.5134 33.154C23.5731 32.7067 23.5859 32.2348 23.5466 31.7554C21.2667 28.0891 17.5766 30.9201 17.9521 32.0486C18.1976 32.6704 18.5334 32.9494 19.3379 33.3137C19.9706 33.4262 20.3025 33.4076 21.0782 32.5676C21.1372 32.5041 21.1864 32.4493 21.2302 32.4005C21.4265 32.1818 21.5158 32.0822 21.9031 31.86C21.9589 31.8059 22.1611 31.693 22.2706 31.7242C22.7531 31.8764 22.8365 32.0448 22.9832 32.3407C23.0827 32.5415 23.2114 32.801 23.5134 33.154Z" fill="#D06C24"/>
<path fill-rule="evenodd" clip-rule="evenodd" d="M7.0222 15.6821C4.68102 16.7097 4.64727 19.1923 6.60327 19.6645C6.62597 20.0108 6.62876 20.2856 6.60327 21.0232C5.67462 22.3008 5.12427 22.6605 4.13623 23.2253C3.30953 19.0771 -1.48192 21.1093 0.458931 25.6616C1.22413 27.5452 3.9143 29.0768 6.60327 26.0833C6.85742 28.9674 10.9709 30.9584 10.5599 25.8959C10.7981 25.8113 10.9362 25.7825 11.2115 25.849C11.198 26.5835 11.1924 26.9944 11.677 27.4888C13.16 31.4463 11.5154 32.3384 10.7453 32.7561C10.5913 32.8397 10.4723 32.9042 10.4202 32.9706C9.71773 33.8173 9.76191 34.8078 11.7701 35.688C12.3059 36.0405 12.1983 36.6816 11.9097 38.1243C13.0096 41.2603 24.0001 42.5209 27.8292 38.3586C28.8124 37.0464 28.949 36.4416 29.1604 35.5056L29.1605 35.5048C29.1812 35.4132 29.2026 35.3184 29.2256 35.2195C29.4106 33.8372 29.3857 32.6256 29.3602 31.39C29.2904 28.0012 29.2168 24.4317 33.4615 16.666C41.5789 2.51822 22.6687 -6.57401 13.7717 5.88995C13.3276 6.81763 13.0425 7.2288 12.5149 7.9046C10.6282 8.2459 10.4296 8.90047 10.234 10.1535C8.18362 12.1737 7.72286 13.4264 7.0222 15.6821ZM10.234 13.6688C9.95545 14.246 9.18986 16.489 10.8454 18.9546C12.5303 20.4203 15.3927 20.4718 16.6387 17.9707C17.3537 15.6971 17.2712 14.9209 15.9846 13.1045C13.9689 11.1409 11.5098 11.5012 10.234 13.6688ZM20.8373 19.6645C19.7877 16.6642 20.0421 15.031 22.4725 12.2325C24.197 10.633 29.4931 10.3188 30.061 13.267C30.9667 17.4357 30.6491 20.6481 27.2848 22.0635C23.9068 22.606 22.1437 22.0416 20.8373 19.6645ZM28.3794 2.48921C28.3348 2.58266 28.2889 2.67867 28.2497 2.76632C28.1329 2.75122 28.0012 2.72283 27.8594 2.69229C27.6167 2.63999 27.3445 2.58136 27.0675 2.57217C26.9295 2.72259 26.8594 2.99033 27.0105 3.09176C27.0992 3.09549 27.2754 3.09864 27.4352 3.1015C27.5533 3.10361 27.6626 3.10556 27.7209 3.10747C27.8241 3.11084 27.8931 3.11929 27.962 3.12774C28.0185 3.13465 28.0749 3.14156 28.15 3.14567C28.0969 3.26011 28.0576 3.38052 28.0151 3.51087C27.9604 3.67856 27.9004 3.86268 27.7985 4.0717C27.4098 4.11329 26.4317 4.2668 26.1558 4.41497C26.3617 4.42678 26.8608 4.42127 27.2081 4.41743C27.3615 4.41574 27.4853 4.41437 27.541 4.41497C27.5719 4.41531 27.6016 4.41563 27.6301 4.416C27.547 4.5854 27.3889 4.96499 27.2188 5.37341C27.0174 5.85675 26.7992 6.38048 26.6686 6.64402C26.6775 6.68098 26.6848 6.72069 26.6923 6.76117C26.7373 7.00529 26.7875 7.27733 27.2111 7.14247C27.4017 7.03938 27.9657 5.50947 28.2001 4.48307C28.2437 4.4982 28.3911 4.5138 28.5714 4.53288C28.9058 4.56827 29.3532 4.61563 29.4605 4.69412C29.5911 4.62108 29.594 4.62033 29.6619 4.60265C29.6824 4.59729 29.709 4.59038 29.7469 4.57942C30.024 4.49927 30.1546 4.39317 29.9163 4.23532L28.2918 4.06811C28.3783 3.83392 28.4266 3.65141 28.4725 3.47789C28.4969 3.38587 28.5205 3.29637 28.5489 3.20302C28.7401 3.32431 29.0085 3.33492 29.2811 3.34571C29.5033 3.35449 29.7282 3.36339 29.9163 3.43242L29.5745 3.09176C29.3862 3.01492 29.0804 2.95795 28.8505 2.91512C28.7867 2.90324 28.7288 2.89245 28.6808 2.88263C28.7263 2.72377 28.7702 2.56372 28.8177 2.39025C28.8354 2.32578 28.8556 2.19217 28.8767 2.05273C28.9001 1.89867 28.9245 1.73749 28.9477 1.65457C28.8877 1.665 28.7672 1.82447 28.6164 2.02417C28.5945 2.05317 28.572 2.08301 28.5489 2.11337C28.5151 2.20511 28.4487 2.34406 28.3794 2.48921ZM14.5927 33.4098C15.8341 32.596 15.8511 31.2914 14.9472 27.7979V27.2789C17.7384 27.5848 18.9636 27.469 20.6193 26.9545C22.5179 28.0573 23.399 29.9588 23.5466 31.7554C21.2667 28.0891 17.5766 30.9201 17.9521 32.0486C18.1976 32.6704 18.5334 32.9494 19.3379 33.3137C19.9706 33.4262 20.3025 33.4076 21.0782 32.5676C21.1372 32.5041 21.1864 32.4493 21.2302 32.4005C21.4265 32.1818 21.5158 32.0822 21.9031 31.86C21.9589 31.8059 22.1611 31.693 22.2706 31.7242C22.7531 31.8764 22.8365 32.0448 22.9832 32.3407C23.0827 32.5415 23.2114 32.801 23.5134 33.154C23.2183 35.3652 21.7786 36.9744 19.8458 35.9075C17.0605 33.8648 15.8406 33.2167 14.5927 33.4098Z" fill="#D06C24"/>
</svg>
